<mxfile host="app.diagrams.net" modified="2024-06-22T13:18:31.203Z" agent="Mozilla/5.0 (Windows NT 10.0; Win64; x64) AppleWebKit/537.36 (KHTML, like Gecko) Chrome/126.0.0.0 Safari/537.36" etag="fnHtSxihLCpwIQ79SklG" version="21.3.2" type="github" pages="2">
  <diagram name="boot flow" id="sLdjjFRCurw4iOtgUeHd">
    <mxGraphModel dx="2060" dy="1084" grid="0" gridSize="10" guides="1" tooltips="1" connect="1" arrows="1" fold="1" page="1" pageScale="1" pageWidth="850" pageHeight="1100" math="0" shadow="0">
      <root>
        <mxCell id="0" />
        <mxCell id="1" parent="0" />
        <mxCell id="5hGT4fBKBSTOdROvtuz6-6" style="edgeStyle=orthogonalEdgeStyle;rounded=0;orthogonalLoop=1;jettySize=auto;html=1;" parent="1" source="5hGT4fBKBSTOdROvtuz6-1" target="5hGT4fBKBSTOdROvtuz6-2" edge="1">
          <mxGeometry relative="1" as="geometry" />
        </mxCell>
        <mxCell id="5hGT4fBKBSTOdROvtuz6-1" value="ROM" style="rounded=0;whiteSpace=wrap;html=1;fillColor=#dae8fc;strokeColor=#6c8ebf;" parent="1" vertex="1">
          <mxGeometry x="12" y="310" width="120" height="60" as="geometry" />
        </mxCell>
        <mxCell id="5hGT4fBKBSTOdROvtuz6-7" style="edgeStyle=orthogonalEdgeStyle;rounded=0;orthogonalLoop=1;jettySize=auto;html=1;entryX=0;entryY=0.5;entryDx=0;entryDy=0;" parent="1" source="5hGT4fBKBSTOdROvtuz6-2" target="5hGT4fBKBSTOdROvtuz6-3" edge="1">
          <mxGeometry relative="1" as="geometry" />
        </mxCell>
        <mxCell id="5hGT4fBKBSTOdROvtuz6-8" style="edgeStyle=orthogonalEdgeStyle;rounded=0;orthogonalLoop=1;jettySize=auto;html=1;entryX=0;entryY=0.5;entryDx=0;entryDy=0;dashed=1;" parent="1" source="5hGT4fBKBSTOdROvtuz6-2" target="5hGT4fBKBSTOdROvtuz6-4" edge="1">
          <mxGeometry relative="1" as="geometry" />
        </mxCell>
        <mxCell id="5hGT4fBKBSTOdROvtuz6-2" value="U-Boot SPL&lt;div&gt;(M mode)&lt;/div&gt;" style="rounded=0;whiteSpace=wrap;html=1;fillColor=#fff2cc;strokeColor=#d6b656;" parent="1" vertex="1">
          <mxGeometry x="231" y="310" width="120" height="60" as="geometry" />
        </mxCell>
        <mxCell id="5hGT4fBKBSTOdROvtuz6-14" style="edgeStyle=orthogonalEdgeStyle;rounded=0;orthogonalLoop=1;jettySize=auto;html=1;entryX=0.5;entryY=0;entryDx=0;entryDy=0;" parent="1" source="5hGT4fBKBSTOdROvtuz6-3" target="5hGT4fBKBSTOdROvtuz6-4" edge="1">
          <mxGeometry relative="1" as="geometry" />
        </mxCell>
        <mxCell id="5hGT4fBKBSTOdROvtuz6-3" value="OpenSBI&lt;div&gt;(M mode)&lt;/div&gt;&lt;div&gt;(runtime)&lt;/div&gt;" style="rounded=0;whiteSpace=wrap;html=1;fillColor=#fff2cc;strokeColor=#d6b656;" parent="1" vertex="1">
          <mxGeometry x="473" y="310" width="120" height="60" as="geometry" />
        </mxCell>
        <mxCell id="5hGT4fBKBSTOdROvtuz6-9" style="edgeStyle=orthogonalEdgeStyle;rounded=0;orthogonalLoop=1;jettySize=auto;html=1;entryX=0;entryY=0.5;entryDx=0;entryDy=0;" parent="1" source="5hGT4fBKBSTOdROvtuz6-4" target="5hGT4fBKBSTOdROvtuz6-5" edge="1">
          <mxGeometry relative="1" as="geometry" />
        </mxCell>
        <mxCell id="5hGT4fBKBSTOdROvtuz6-4" value="U-Boot&lt;div&gt;(S mode)&lt;/div&gt;" style="rounded=0;whiteSpace=wrap;html=1;fillColor=#fff2cc;strokeColor=#d6b656;" parent="1" vertex="1">
          <mxGeometry x="473" y="459" width="120" height="60" as="geometry" />
        </mxCell>
        <mxCell id="5hGT4fBKBSTOdROvtuz6-5" value="Kernel&lt;div&gt;(S mode)&lt;/div&gt;" style="rounded=0;whiteSpace=wrap;html=1;fillColor=#d5e8d4;strokeColor=#82b366;" parent="1" vertex="1">
          <mxGeometry x="713" y="459" width="120" height="60" as="geometry" />
        </mxCell>
        <mxCell id="5hGT4fBKBSTOdROvtuz6-13" value="Load" style="text;html=1;align=center;verticalAlign=middle;resizable=0;points=[];autosize=1;strokeColor=none;fillColor=none;" parent="1" vertex="1">
          <mxGeometry x="360" y="399" width="45" height="26" as="geometry" />
        </mxCell>
        <mxCell id="5hGT4fBKBSTOdROvtuz6-15" value="Load &amp;amp; Jump" style="text;html=1;align=center;verticalAlign=middle;resizable=0;points=[];autosize=1;strokeColor=none;fillColor=none;" parent="1" vertex="1">
          <mxGeometry x="132" y="310" width="89" height="26" as="geometry" />
        </mxCell>
        <mxCell id="5hGT4fBKBSTOdROvtuz6-16" value="Load &amp;amp; Jump" style="text;html=1;align=center;verticalAlign=middle;resizable=0;points=[];autosize=1;strokeColor=none;fillColor=none;" parent="1" vertex="1">
          <mxGeometry x="364" y="305" width="89" height="26" as="geometry" />
        </mxCell>
        <mxCell id="5hGT4fBKBSTOdROvtuz6-17" value="Jump" style="text;html=1;align=center;verticalAlign=middle;resizable=0;points=[];autosize=1;strokeColor=none;fillColor=none;" parent="1" vertex="1">
          <mxGeometry x="551" y="399" width="47" height="26" as="geometry" />
        </mxCell>
        <mxCell id="5hGT4fBKBSTOdROvtuz6-18" value="Load &amp;amp; Jump" style="text;html=1;align=center;verticalAlign=middle;resizable=0;points=[];autosize=1;strokeColor=none;fillColor=none;" parent="1" vertex="1">
          <mxGeometry x="604" y="459" width="89" height="26" as="geometry" />
        </mxCell>
      </root>
    </mxGraphModel>
  </diagram>
  <diagram id="43BTcc9YuLbMH40Lcr8J" name="memory layout">
    <mxGraphModel dx="1177" dy="619" grid="1" gridSize="10" guides="1" tooltips="1" connect="1" arrows="1" fold="1" page="1" pageScale="1" pageWidth="850" pageHeight="1100" math="0" shadow="0">
      <root>
        <mxCell id="0" />
        <mxCell id="1" parent="0" />
        <mxCell id="BakKcv6VqENGb8ZNnAW--1" value="" style="rounded=0;whiteSpace=wrap;html=1;" vertex="1" parent="1">
          <mxGeometry x="130" y="300" width="30" height="60" as="geometry" />
        </mxCell>
        <mxCell id="BakKcv6VqENGb8ZNnAW--2" value="SD" style="text;html=1;align=center;verticalAlign=middle;resizable=0;points=[];autosize=1;strokeColor=none;fillColor=none;" vertex="1" parent="1">
          <mxGeometry x="50" y="308" width="40" height="30" as="geometry" />
        </mxCell>
        <mxCell id="BakKcv6VqENGb8ZNnAW--3" value="SPL&lt;br&gt;(96k)" style="rounded=0;whiteSpace=wrap;html=1;" vertex="1" parent="1">
          <mxGeometry x="160" y="300" width="120" height="60" as="geometry" />
        </mxCell>
        <mxCell id="BakKcv6VqENGb8ZNnAW--4" value="blk" style="text;html=1;align=center;verticalAlign=middle;resizable=0;points=[];autosize=1;strokeColor=none;fillColor=none;" vertex="1" parent="1">
          <mxGeometry x="80" y="360" width="40" height="30" as="geometry" />
        </mxCell>
        <mxCell id="BakKcv6VqENGb8ZNnAW--5" value="offset" style="text;html=1;align=center;verticalAlign=middle;resizable=0;points=[];autosize=1;strokeColor=none;fillColor=none;" vertex="1" parent="1">
          <mxGeometry x="70" y="260" width="50" height="30" as="geometry" />
        </mxCell>
        <mxCell id="BakKcv6VqENGb8ZNnAW--6" value="uboot.itb&lt;br&gt;(1024 - 128k)" style="rounded=0;whiteSpace=wrap;html=1;" vertex="1" parent="1">
          <mxGeometry x="280" y="300" width="120" height="60" as="geometry" />
        </mxCell>
        <mxCell id="BakKcv6VqENGb8ZNnAW--8" value="kernel.itb&lt;br&gt;(20M - 1024k)" style="rounded=0;whiteSpace=wrap;html=1;" vertex="1" parent="1">
          <mxGeometry x="400" y="300" width="240" height="60" as="geometry" />
        </mxCell>
        <mxCell id="BakKcv6VqENGb8ZNnAW--9" value="32k" style="text;html=1;align=center;verticalAlign=middle;resizable=0;points=[];autosize=1;strokeColor=none;fillColor=none;" vertex="1" parent="1">
          <mxGeometry x="140" y="270" width="40" height="30" as="geometry" />
        </mxCell>
        <mxCell id="BakKcv6VqENGb8ZNnAW--10" value="64" style="text;html=1;align=center;verticalAlign=middle;resizable=0;points=[];autosize=1;strokeColor=none;fillColor=none;" vertex="1" parent="1">
          <mxGeometry x="140" y="360" width="40" height="30" as="geometry" />
        </mxCell>
        <mxCell id="BakKcv6VqENGb8ZNnAW--11" value="128k" style="text;html=1;align=center;verticalAlign=middle;resizable=0;points=[];autosize=1;strokeColor=none;fillColor=none;" vertex="1" parent="1">
          <mxGeometry x="255" y="270" width="50" height="30" as="geometry" />
        </mxCell>
        <mxCell id="BakKcv6VqENGb8ZNnAW--12" value="256" style="text;html=1;align=center;verticalAlign=middle;resizable=0;points=[];autosize=1;strokeColor=none;fillColor=none;" vertex="1" parent="1">
          <mxGeometry x="260" y="358" width="40" height="30" as="geometry" />
        </mxCell>
        <mxCell id="BakKcv6VqENGb8ZNnAW--13" value="1024k" style="text;html=1;align=center;verticalAlign=middle;resizable=0;points=[];autosize=1;strokeColor=none;fillColor=none;" vertex="1" parent="1">
          <mxGeometry x="370" y="268" width="60" height="30" as="geometry" />
        </mxCell>
        <mxCell id="BakKcv6VqENGb8ZNnAW--14" value="2048" style="text;html=1;align=center;verticalAlign=middle;resizable=0;points=[];autosize=1;strokeColor=none;fillColor=none;" vertex="1" parent="1">
          <mxGeometry x="375" y="358" width="50" height="30" as="geometry" />
        </mxCell>
        <mxCell id="BakKcv6VqENGb8ZNnAW--15" value="20M" style="text;html=1;align=center;verticalAlign=middle;resizable=0;points=[];autosize=1;strokeColor=none;fillColor=none;" vertex="1" parent="1">
          <mxGeometry x="615" y="268" width="50" height="30" as="geometry" />
        </mxCell>
        <mxCell id="BakKcv6VqENGb8ZNnAW--16" value="40960" style="text;html=1;align=center;verticalAlign=middle;resizable=0;points=[];autosize=1;strokeColor=none;fillColor=none;" vertex="1" parent="1">
          <mxGeometry x="610" y="358" width="60" height="30" as="geometry" />
        </mxCell>
        <mxCell id="BakKcv6VqENGb8ZNnAW--17" value="OpenSBI&lt;br&gt;(16M)" style="rounded=0;whiteSpace=wrap;html=1;fillColor=#dae8fc;strokeColor=#6c8ebf;" vertex="1" parent="1">
          <mxGeometry x="375" y="700" width="120" height="60" as="geometry" />
        </mxCell>
        <mxCell id="BakKcv6VqENGb8ZNnAW--18" value="spl&lt;br&gt;(16M)" style="rounded=0;whiteSpace=wrap;html=1;fillColor=#dae8fc;strokeColor=#6c8ebf;" vertex="1" parent="1">
          <mxGeometry x="375" y="760" width="120" height="60" as="geometry" />
        </mxCell>
        <mxCell id="BakKcv6VqENGb8ZNnAW--19" value="" style="rounded=0;whiteSpace=wrap;html=1;" vertex="1" parent="1">
          <mxGeometry x="375" y="820" width="120" height="60" as="geometry" />
        </mxCell>
        <mxCell id="BakKcv6VqENGb8ZNnAW--20" value="0x38_0000_0000" style="text;html=1;align=center;verticalAlign=middle;resizable=0;points=[];autosize=1;strokeColor=none;fillColor=none;" vertex="1" parent="1">
          <mxGeometry x="265" y="868" width="120" height="30" as="geometry" />
        </mxCell>
        <mxCell id="BakKcv6VqENGb8ZNnAW--21" value="0x38_0004_0000&amp;nbsp;&amp;nbsp;" style="text;html=1;align=center;verticalAlign=middle;resizable=0;points=[];autosize=1;strokeColor=none;fillColor=none;" vertex="1" parent="1">
          <mxGeometry x="265" y="808" width="120" height="30" as="geometry" />
        </mxCell>
        <mxCell id="BakKcv6VqENGb8ZNnAW--22" value="0x38_0100_0000&amp;nbsp; &amp;nbsp;" style="text;html=1;align=center;verticalAlign=middle;resizable=0;points=[];autosize=1;strokeColor=none;fillColor=none;" vertex="1" parent="1">
          <mxGeometry x="260" y="748" width="130" height="30" as="geometry" />
        </mxCell>
        <mxCell id="BakKcv6VqENGb8ZNnAW--23" value="0x38_0200_0000" style="text;html=1;align=center;verticalAlign=middle;resizable=0;points=[];autosize=1;strokeColor=none;fillColor=none;" vertex="1" parent="1">
          <mxGeometry x="265" y="680" width="120" height="30" as="geometry" />
        </mxCell>
        <mxCell id="BakKcv6VqENGb8ZNnAW--24" value="Uboot&lt;br&gt;(16M)" style="rounded=0;whiteSpace=wrap;html=1;fillColor=#dae8fc;strokeColor=#6c8ebf;" vertex="1" parent="1">
          <mxGeometry x="375" y="640" width="120" height="60" as="geometry" />
        </mxCell>
        <mxCell id="BakKcv6VqENGb8ZNnAW--25" value="uboot.itb&lt;br&gt;(16M)" style="rounded=0;whiteSpace=wrap;html=1;fillColor=#fff2cc;strokeColor=#d6b656;" vertex="1" parent="1">
          <mxGeometry x="375" y="580" width="120" height="60" as="geometry" />
        </mxCell>
        <mxCell id="BakKcv6VqENGb8ZNnAW--26" value="0x38_0300_0000" style="text;html=1;align=center;verticalAlign=middle;resizable=0;points=[];autosize=1;strokeColor=none;fillColor=none;" vertex="1" parent="1">
          <mxGeometry x="265" y="625" width="120" height="30" as="geometry" />
        </mxCell>
        <mxCell id="BakKcv6VqENGb8ZNnAW--27" value="kernel.itb&lt;br&gt;(32M)" style="rounded=0;whiteSpace=wrap;html=1;fillColor=#fff2cc;strokeColor=#d6b656;" vertex="1" parent="1">
          <mxGeometry x="375" y="520" width="120" height="60" as="geometry" />
        </mxCell>
        <mxCell id="BakKcv6VqENGb8ZNnAW--28" value="0x38_0400_0000" style="text;html=1;align=center;verticalAlign=middle;resizable=0;points=[];autosize=1;strokeColor=none;fillColor=none;" vertex="1" parent="1">
          <mxGeometry x="265" y="560" width="120" height="30" as="geometry" />
        </mxCell>
        <mxCell id="BakKcv6VqENGb8ZNnAW--29" value="kernel" style="rounded=0;whiteSpace=wrap;html=1;fillColor=#dae8fc;strokeColor=#6c8ebf;" vertex="1" parent="1">
          <mxGeometry x="375" y="420" width="120" height="100" as="geometry" />
        </mxCell>
        <mxCell id="BakKcv6VqENGb8ZNnAW--30" value="0x38_0600_0000" style="text;html=1;align=center;verticalAlign=middle;resizable=0;points=[];autosize=1;strokeColor=none;fillColor=none;" vertex="1" parent="1">
          <mxGeometry x="265" y="508" width="120" height="30" as="geometry" />
        </mxCell>
        <mxCell id="BakKcv6VqENGb8ZNnAW--31" value="0x38_8000_0000" style="text;html=1;align=center;verticalAlign=middle;resizable=0;points=[];autosize=1;strokeColor=none;fillColor=none;" vertex="1" parent="1">
          <mxGeometry x="265" y="410" width="120" height="30" as="geometry" />
        </mxCell>
      </root>
    </mxGraphModel>
  </diagram>
</mxfile>
